<svg width="40" height="20" viewBox="0 0 40 20" fill="none" xmlns="http://www.w3.org/2000/svg">
<path d="M36.5409 0.499742C35.5452 0.172598 34.4096 0 33.2526 0C32.0957 0 30.96 0.172598 29.9643 0.499742L11.9937 6.50409V3.35208C11.9937 2.46902 11.3619 1.62213 10.2373 0.997714C9.11266 0.373296 7.58733 0.0225018 5.99686 0.0225018C4.4064 0.0225018 2.88107 0.373296 1.75644 0.997714C0.631811 1.62213 0 2.46902 0 3.35208V16.6704C0 17.5535 0.631811 18.4004 1.75644 19.0248C2.88107 19.6492 4.4064 20 5.99686 20C7.58733 20 9.11266 19.6492 10.2373 19.0248C11.3619 18.4004 11.9937 17.5535 11.9937 16.6704V13.5184L29.9843 19.4784C30.9984 19.8174 32.1589 19.9976 33.3426 20C34.4719 19.9994 35.5814 19.8349 36.5609 19.5228C37.6208 19.1911 38.4998 18.7066 39.105 18.1206C39.7101 17.5345 40.0191 16.8686 39.9991 16.1932V3.81823C40.0135 3.14354 39.6998 2.47919 39.0912 1.89517C38.4826 1.31115 37.6016 0.829077 36.5409 0.499742V0.499742ZM7.99582 16.6704C7.99582 16.9648 7.78522 17.2471 7.41034 17.4552C7.03546 17.6633 6.52702 17.7803 5.99686 17.7803C5.46671 17.7803 4.95827 17.6633 4.58339 17.4552C4.20851 17.2471 3.99791 16.9648 3.99791 16.6704V3.35208C3.99791 3.05773 4.20851 2.77543 4.58339 2.56729C4.95827 2.35916 5.46671 2.24222 5.99686 2.24222C6.52702 2.24222 7.03546 2.35916 7.41034 2.56729C7.78522 2.77543 7.99582 3.05773 7.99582 3.35208V16.6704ZM35.9812 16.2043C35.9926 16.4852 35.8667 16.7625 35.6168 17.0068C35.3668 17.2511 35.0023 17.4532 34.5619 17.5916C34.1765 17.722 33.7339 17.791 33.2826 17.791C32.8313 17.791 32.3887 17.722 32.0033 17.5916L13.353 11.3764C12.9358 11.2318 12.5917 11.0306 12.3532 10.7918C12.1146 10.5529 11.9894 10.2843 11.9894 10.0113C11.9894 9.73816 12.1146 9.46957 12.3532 9.23075C12.5917 8.99192 12.9358 8.79074 13.353 8.64612L31.9833 2.4531C32.3838 2.31264 32.8489 2.23941 33.3226 2.24222C33.7578 2.24604 34.1841 2.31095 34.5619 2.4309C35.0023 2.5693 35.3668 2.7714 35.6168 3.0157C35.8667 3.25999 35.9926 3.53734 35.9812 3.81823V16.2043Z" fill="#B9CED7"/>
</svg>
