<svg width="40" height="20" viewBox="0 0 40 20" fill="none" xmlns="http://www.w3.org/2000/svg">
<path d="M34.0001 0C32.4089 0 30.8828 0.351189 29.7576 0.976309C28.6324 1.60143 28.0003 2.44927 28.0003 3.33333V6.48888L10.0007 0.522221C9.00596 0.192419 7.86915 0.0182896 6.71076 0.0182896C5.55237 0.0182896 4.41556 0.192419 3.42083 0.522221C2.37903 0.851141 1.51332 1.328 0.91238 1.90396C0.311444 2.47992 -0.00311953 3.13427 0.000910316 3.79999V16.2C-0.019064 16.8762 0.290003 17.5428 0.895474 18.1295C1.50095 18.7163 2.38035 19.2012 3.44083 19.5333C4.42272 19.8419 5.53263 20.0028 6.66076 20C7.83825 19.9956 8.99192 19.8152 10.0007 19.4777L28.0003 13.5111V16.6666C28.0003 17.5507 28.6324 18.3985 29.7576 19.0237C30.8828 19.6488 32.4089 20 34.0001 20C35.5914 20 37.1175 19.6488 38.2427 19.0237C39.3679 18.3985 40 17.5507 40 16.6666V3.33333C40 2.44927 39.3679 1.60143 38.2427 0.976309C37.1175 0.351189 35.5914 0 34.0001 0ZM26.6403 11.3666L8.00073 17.5666C7.61513 17.6972 7.1723 17.7662 6.72076 17.7662C6.26922 17.7662 5.82639 17.6972 5.44079 17.5666C5.00249 17.4313 4.63764 17.2331 4.38434 16.9927C4.13104 16.7523 3.99859 16.4785 4.00082 16.2V3.79999C3.98938 3.51879 4.11538 3.24113 4.36543 2.99656C4.61547 2.75199 4.9802 2.54966 5.42079 2.41111C5.7988 2.29102 6.22537 2.22604 6.66076 2.22222C7.1347 2.2194 7.60001 2.29271 8.00073 2.43333L26.6603 8.63332C27.0777 8.7781 27.422 8.97951 27.6607 9.2186C27.8993 9.45769 28.0246 9.72659 28.0246 9.99998C28.0246 10.2734 27.8993 10.5423 27.6607 10.7814C27.422 11.0205 27.0777 11.2219 26.6603 11.3666H26.6403ZM36.0001 16.6666C36.0001 16.9613 35.7894 17.2439 35.4143 17.4523C35.0393 17.6607 34.5306 17.7777 34.0001 17.7777C33.4697 17.7777 32.961 17.6607 32.586 17.4523C32.2109 17.2439 32.0002 16.9613 32.0002 16.6666V3.33333C32.0002 3.03864 32.2109 2.75603 32.586 2.54765C32.961 2.33928 33.4697 2.22222 34.0001 2.22222C34.5306 2.22222 35.0393 2.33928 35.4143 2.54765C35.7894 2.75603 36.0001 3.03864 36.0001 3.33333V16.6666Z" fill="#B9CED7"/>
</svg>
