<svg width="251" height="250" viewBox="0 0 251 250" fill="none" xmlns="http://www.w3.org/2000/svg">
<g filter="url(#filter0_b_626_16)">
<path d="M159.291 188.506C157.64 186.088 155.293 183.67 152.251 182.139C149.818 181.011 148.253 179.157 146.863 176.981C142.43 170.05 145.038 160.942 152.425 156.832C161.116 152.238 163.898 142.003 158.857 134.024L153.034 124.514C148.08 116.535 137.215 113.714 128.611 118.388C120.963 122.257 111.142 119.678 106.709 112.827C105.318 110.571 104.536 108.153 104.71 105.735C104.971 102.592 103.928 99.6097 102.363 97.1918C99.1476 92.1949 93.3245 88.8099 86.8929 88.8099H74.6382C68.2935 88.9711 62.4704 92.1949 59.2546 97.1918C57.6033 99.6097 56.6472 102.592 56.821 105.735C56.9949 108.153 56.2127 110.571 54.8221 112.827C50.3895 119.678 40.5683 122.257 33.0069 118.388C24.3156 113.714 13.5384 116.535 8.49749 124.514L2.67433 134.024C-2.2797 142.003 0.50151 152.238 9.10588 156.832C16.4935 160.942 19.1009 170.05 14.7552 176.981C13.2777 179.157 11.7133 181.011 9.27971 182.139C6.32467 183.67 3.71729 186.088 2.32668 188.506C-0.889096 193.503 -0.71527 199.789 2.50051 205.028L8.49749 214.699C11.7133 219.857 17.7103 223.081 23.968 223.081C26.923 223.081 30.3995 222.275 33.1807 220.663C35.3536 219.293 37.961 218.81 40.8291 218.81C49.4335 218.81 56.6472 225.499 56.821 233.478C56.821 242.746 64.817 250 74.8989 250H86.7191C96.7141 250 104.71 242.746 104.71 233.478C104.971 225.499 112.185 218.81 120.789 218.81C123.57 218.81 126.178 219.293 128.437 220.663C131.218 222.275 134.608 223.081 137.65 223.081C143.821 223.081 149.818 219.857 153.034 214.699L159.117 205.028C162.246 199.628 162.507 193.503 159.291 188.506" fill="url(#paint0_linear_626_16)"/>
</g>
<g opacity="0.5" filter="url(#filter1_f_626_16)">
<path d="M121.819 179.69C120.967 178.446 119.757 177.201 118.189 176.413C116.934 175.832 116.127 174.878 115.41 173.758C113.125 170.191 114.469 165.503 118.278 163.387C122.76 161.023 124.194 155.755 121.595 151.648L118.592 146.753C116.038 142.646 110.436 141.194 105.999 143.6C102.055 145.591 96.9914 144.264 94.7059 140.738C93.9889 139.576 93.5855 138.332 93.6752 137.087C93.8096 135.47 93.2718 133.935 92.4652 132.69C90.807 130.118 87.8045 128.376 84.4882 128.376H78.1694C74.8979 128.459 71.8953 130.118 70.2372 132.69C69.3857 133.935 68.8928 135.47 68.9824 137.087C69.072 138.332 68.6687 139.576 67.9517 140.738C65.6661 144.264 60.6021 145.591 56.7032 143.6C52.2218 141.194 46.6648 142.646 44.0656 146.753L41.063 151.648C38.5086 155.755 39.9426 161.023 44.3793 163.387C48.1885 165.503 49.5329 170.191 47.2922 173.758C46.5304 174.878 45.7237 175.832 44.4689 176.413C42.9452 177.201 41.6008 178.446 40.8837 179.69C39.2256 182.262 39.3152 185.498 40.9734 188.194L44.0656 193.172C45.7237 195.827 48.8159 197.486 52.0425 197.486C53.5662 197.486 55.3588 197.071 56.7929 196.242C57.9132 195.537 59.2577 195.288 60.7365 195.288C65.1732 195.288 68.8928 198.731 68.9824 202.837C68.9824 207.608 73.1053 211.341 78.3038 211.341H84.3986C89.5522 211.341 93.6752 207.608 93.6752 202.837C93.8096 198.731 97.5292 195.288 101.966 195.288C103.4 195.288 104.744 195.537 105.91 196.242C107.344 197.071 109.091 197.486 110.66 197.486C113.842 197.486 116.934 195.827 118.592 193.172L121.729 188.194C123.342 185.415 123.477 182.262 121.819 179.69" fill="#277625"/>
</g>
<g filter="url(#filter2_b_626_16)">
<path d="M163.307 98.0482C161.614 95.6703 159.208 93.2924 156.09 91.7864C153.595 90.6767 151.991 88.8537 150.565 86.7136C146.021 79.897 148.694 70.9403 156.268 66.8979C165.178 62.3799 168.03 52.3135 162.862 44.4665L156.892 35.1135C151.813 27.2664 140.675 24.4922 131.853 29.0895C124.012 32.8941 113.943 30.3577 109.399 23.6203C107.974 21.401 107.172 19.0231 107.35 16.6452C107.617 13.554 106.548 10.6212 104.944 8.24334C101.647 3.32904 95.6772 0 89.0835 0H76.5198C70.0152 0.158526 64.0453 3.32904 60.7484 8.24334C59.0555 10.6212 58.0753 13.554 58.2535 16.6452C58.4317 19.0231 57.6298 21.401 56.2041 23.6203C51.6598 30.3577 41.5911 32.8941 33.839 29.0895C24.9286 24.4922 13.8797 27.2664 8.71172 35.1135L2.74175 44.4665C-2.33717 52.3135 0.514153 62.3799 9.33544 66.8979C16.9093 70.9403 19.5824 79.897 15.1272 86.7136C13.6124 88.8537 12.0086 90.6767 9.51365 91.7864C6.48412 93.2924 3.811 95.6703 2.38534 98.0482C-0.91151 102.962 -0.733303 109.145 2.56354 114.297L8.71172 123.809C12.0086 128.881 18.1567 132.052 24.5722 132.052C27.6018 132.052 31.1659 131.259 34.0172 129.674C36.2448 128.327 38.918 127.851 41.8584 127.851C50.6797 127.851 58.0753 134.43 58.2535 142.277C58.2535 151.392 66.4511 158.526 76.7871 158.526H88.9053C99.1522 158.526 107.35 151.392 107.35 142.277C107.617 134.43 115.013 127.851 123.834 127.851C126.685 127.851 129.358 128.327 131.675 129.674C134.527 131.259 138.002 132.052 141.12 132.052C147.447 132.052 153.595 128.881 156.892 123.809L163.129 114.297C166.337 108.986 166.604 102.962 163.307 98.0482" fill="url(#paint1_linear_626_16)"/>
</g>
<g opacity="0.5" filter="url(#filter3_f_626_16)">
<path d="M124.89 89.378C124.017 88.1541 122.776 86.9302 121.168 86.155C119.882 85.5839 119.055 84.6456 118.32 83.544C115.977 80.0355 117.355 75.4254 121.26 73.3448C125.855 71.0193 127.325 65.8381 124.66 61.7992L121.582 56.9851C118.963 52.9462 113.22 51.5183 108.671 53.8846C104.628 55.8428 99.4366 54.5373 97.0934 51.0696C96.3583 49.9273 95.9448 48.7033 96.0367 47.4794C96.1745 45.8883 95.6232 44.3789 94.7962 43.1549C93.0963 40.6255 90.018 38.912 86.6181 38.912H80.14C76.7861 38.9936 73.7078 40.6255 72.0079 43.1549C71.1349 44.3789 70.6296 45.8883 70.7214 47.4794C70.8133 48.7033 70.3998 49.9273 69.6647 51.0696C67.3216 54.5373 62.1299 55.8428 58.1327 53.8846C53.5383 51.5183 47.8412 52.9462 45.1765 56.9851L42.0982 61.7992C39.4794 65.8381 40.9496 71.0193 45.4981 73.3448C49.4033 75.4254 50.7817 80.0355 48.4844 83.544C47.7034 84.6456 46.8764 85.5839 45.59 86.155C44.0279 86.9302 42.6495 88.1541 41.9144 89.378C40.2145 91.9074 40.3064 95.0896 42.0063 97.7414L45.1765 102.637C46.8764 105.248 50.0465 106.88 53.3545 106.88C54.9166 106.88 56.7544 106.472 58.2246 105.656C59.3732 104.963 60.7516 104.718 62.2677 104.718C66.8162 104.718 70.6296 108.104 70.7214 112.143C70.7214 116.834 74.9483 120.506 80.2778 120.506H86.5263C91.8098 120.506 96.0367 116.834 96.0367 112.143C96.1745 108.104 99.9879 104.718 104.536 104.718C106.007 104.718 107.385 104.963 108.579 105.656C110.05 106.472 111.842 106.88 113.45 106.88C116.712 106.88 119.882 105.248 121.582 102.637L124.798 97.7414C126.452 95.008 126.59 91.9074 124.89 89.378" fill="#277625"/>
</g>
<g filter="url(#filter4_b_626_16)">
<mask id="path-5-outside-1_626_16" maskUnits="userSpaceOnUse" x="48.1803" y="19.9813" width="203" height="193" fill="black">
<rect fill="white" x="48.1803" y="19.9813" width="203" height="193"/>
<path d="M247.148 138.735C245.095 135.879 242.179 133.024 238.398 131.215C235.374 129.882 233.43 127.693 231.701 125.123C226.193 116.936 229.433 106.179 238.614 101.324C249.416 95.8983 252.872 83.8088 246.608 74.3847L239.371 63.1519C233.214 53.7278 219.712 50.396 209.018 55.9172C199.513 60.4865 187.307 57.4403 181.798 49.3489C180.07 46.6835 179.098 43.8277 179.314 40.9719C179.638 37.2594 178.342 33.7372 176.398 30.8814C172.401 24.9794 165.164 20.9813 157.171 20.9813H141.941C134.056 21.1717 126.819 24.9794 122.822 30.8814C120.77 33.7372 119.582 37.2594 119.798 40.9719C120.014 43.8277 119.041 46.6835 117.313 49.3489C111.804 57.4403 99.5987 60.4865 90.2013 55.9172C79.3998 50.396 66.0059 53.7278 59.741 63.1519L52.504 74.3847C46.3471 83.8088 49.8036 95.8983 60.4971 101.324C69.6784 106.179 72.9189 116.936 67.5181 125.123C65.6819 127.693 63.7376 129.882 60.7132 131.215C57.0406 133.024 53.8002 135.879 52.0719 138.735C48.0754 144.637 48.2914 152.062 52.288 158.25L59.741 169.673C63.7376 175.765 71.1906 179.573 78.9677 179.573C82.6403 179.573 86.9609 178.621 90.4174 176.717C93.1178 175.099 96.3582 174.528 99.9227 174.528C110.616 174.528 119.582 182.429 119.798 191.853C119.798 202.8 129.735 211.368 142.265 211.368H156.955C169.377 211.368 179.314 202.8 179.314 191.853C179.638 182.429 188.603 174.528 199.297 174.528C202.753 174.528 205.994 175.099 208.802 176.717C212.259 178.621 216.471 179.573 220.252 179.573C227.921 179.573 235.374 175.765 239.371 169.673L246.932 158.25C250.82 151.872 251.144 144.637 247.148 138.735"/>
</mask>
<path d="M247.148 138.735C245.095 135.879 242.179 133.024 238.398 131.215C235.374 129.882 233.43 127.693 231.701 125.123C226.193 116.936 229.433 106.179 238.614 101.324C249.416 95.8983 252.872 83.8088 246.608 74.3847L239.371 63.1519C233.214 53.7278 219.712 50.396 209.018 55.9172C199.513 60.4865 187.307 57.4403 181.798 49.3489C180.07 46.6835 179.098 43.8277 179.314 40.9719C179.638 37.2594 178.342 33.7372 176.398 30.8814C172.401 24.9794 165.164 20.9813 157.171 20.9813H141.941C134.056 21.1717 126.819 24.9794 122.822 30.8814C120.77 33.7372 119.582 37.2594 119.798 40.9719C120.014 43.8277 119.041 46.6835 117.313 49.3489C111.804 57.4403 99.5987 60.4865 90.2013 55.9172C79.3998 50.396 66.0059 53.7278 59.741 63.1519L52.504 74.3847C46.3471 83.8088 49.8036 95.8983 60.4971 101.324C69.6784 106.179 72.9189 116.936 67.5181 125.123C65.6819 127.693 63.7376 129.882 60.7132 131.215C57.0406 133.024 53.8002 135.879 52.0719 138.735C48.0754 144.637 48.2914 152.062 52.288 158.25L59.741 169.673C63.7376 175.765 71.1906 179.573 78.9677 179.573C82.6403 179.573 86.9609 178.621 90.4174 176.717C93.1178 175.099 96.3582 174.528 99.9227 174.528C110.616 174.528 119.582 182.429 119.798 191.853C119.798 202.8 129.735 211.368 142.265 211.368H156.955C169.377 211.368 179.314 202.8 179.314 191.853C179.638 182.429 188.603 174.528 199.297 174.528C202.753 174.528 205.994 175.099 208.802 176.717C212.259 178.621 216.471 179.573 220.252 179.573C227.921 179.573 235.374 175.765 239.371 169.673L246.932 158.25C250.82 151.872 251.144 144.637 247.148 138.735" fill="#88C437" fill-opacity="0.6"/>
<path d="M246.336 139.319C246.658 139.767 247.283 139.87 247.731 139.547C248.18 139.225 248.282 138.6 247.96 138.152L246.336 139.319ZM238.398 131.215L238.83 130.313C238.821 130.308 238.811 130.304 238.802 130.3L238.398 131.215ZM231.701 125.123L232.531 124.565L232.531 124.564L231.701 125.123ZM238.614 101.324L238.166 100.431C238.159 100.434 238.153 100.437 238.147 100.44L238.614 101.324ZM246.608 74.3847L245.767 74.9263C245.77 74.9303 245.772 74.9343 245.775 74.9383L246.608 74.3847ZM239.371 63.1519L240.211 62.6103L240.208 62.605L239.371 63.1519ZM209.018 55.9172L209.451 56.8185C209.46 56.8144 209.469 56.8101 209.477 56.8058L209.018 55.9172ZM181.798 49.3489L180.959 49.8929C180.963 49.8992 180.968 49.9055 180.972 49.9117L181.798 49.3489ZM179.314 40.9719L178.318 40.8849L178.317 40.8965L179.314 40.9719ZM176.398 30.8814L175.57 31.4421L175.571 31.4442L176.398 30.8814ZM141.941 20.9813V19.9813C141.933 19.9813 141.925 19.9814 141.917 19.9816L141.941 20.9813ZM122.822 30.8814L123.634 31.465C123.639 31.4574 123.645 31.4498 123.65 31.4421L122.822 30.8814ZM119.798 40.9719L118.799 41.03C118.8 41.0358 118.8 41.0415 118.8 41.0473L119.798 40.9719ZM117.313 49.3489L118.14 49.9117C118.144 49.9055 118.148 49.8992 118.152 49.8929L117.313 49.3489ZM90.2013 55.9172L89.7462 56.8076C89.7521 56.8107 89.7581 56.8136 89.7641 56.8165L90.2013 55.9172ZM59.741 63.1519L58.9082 62.5983C58.9056 62.6023 58.903 62.6063 58.9004 62.6103L59.741 63.1519ZM52.504 74.3847L53.3412 74.9316L53.3446 74.9263L52.504 74.3847ZM60.4971 101.324L60.9646 100.44C60.9596 100.438 60.9546 100.435 60.9496 100.433L60.4971 101.324ZM67.5181 125.123L68.3318 125.704C68.339 125.694 68.346 125.684 68.3528 125.673L67.5181 125.123ZM60.7132 131.215L60.3099 130.3C60.2969 130.306 60.2841 130.312 60.2713 130.318L60.7132 131.215ZM52.0719 138.735L52.8999 139.296C52.9095 139.282 52.9187 139.268 52.9275 139.253L52.0719 138.735ZM52.288 158.25L51.4479 158.792L51.4505 158.796L52.288 158.25ZM59.741 169.673L58.9035 170.219L58.9049 170.222L59.741 169.673ZM90.4174 176.717L90.8998 177.593C90.9105 177.587 90.921 177.581 90.9314 177.575L90.4174 176.717ZM119.798 191.853H120.798C120.798 191.845 120.797 191.838 120.797 191.83L119.798 191.853ZM179.314 191.853L178.315 191.819C178.314 191.83 178.314 191.842 178.314 191.853H179.314ZM208.802 176.717L208.303 177.584C208.308 177.587 208.314 177.59 208.32 177.593L208.802 176.717ZM239.371 169.673L238.537 169.121L238.534 169.125L239.371 169.673ZM246.932 158.25L247.765 158.802C247.772 158.791 247.779 158.781 247.785 158.77L246.932 158.25ZM247.976 138.175C247.666 137.717 247.044 137.598 246.587 137.907C246.13 138.217 246.01 138.839 246.32 139.296L247.976 138.175ZM247.96 138.152C245.835 135.195 242.797 132.211 238.83 130.313L237.967 132.117C241.561 133.836 244.356 136.564 246.336 139.319L247.96 138.152ZM238.802 130.3C236.026 129.077 234.212 127.064 232.531 124.565L230.872 125.681C232.647 128.321 234.722 130.688 237.995 132.13L238.802 130.3ZM232.531 124.564C227.397 116.935 230.354 106.823 239.082 102.208L238.147 100.44C228.512 105.535 224.988 116.937 230.872 125.681L232.531 124.564ZM239.063 102.218C250.354 96.5463 254.066 83.7982 247.44 73.8311L245.775 74.9383C251.679 83.8194 248.478 95.2504 238.166 100.431L239.063 102.218ZM247.448 73.8431L240.211 62.6103L238.53 63.6935L245.767 74.9263L247.448 73.8431ZM240.208 62.605C233.75 52.7198 219.674 49.2899 208.559 55.0287L209.477 56.8058C219.749 51.5021 232.678 54.7357 238.533 63.6988L240.208 62.605ZM208.585 55.0159C199.488 59.3889 187.833 56.4352 182.625 48.7861L180.972 49.9117C186.782 58.4454 199.538 61.5841 209.451 56.8185L208.585 55.0159ZM182.637 48.8048C180.988 46.2615 180.116 43.6216 180.311 41.0473L178.317 40.8965C178.08 44.0338 179.152 47.1054 180.959 49.8929L182.637 48.8048ZM180.31 41.0588C180.659 37.0575 179.26 33.3093 177.224 30.3186L175.571 31.4442C177.423 34.1651 178.617 37.4612 178.318 40.8849L180.31 41.0588ZM177.226 30.3207C173.039 24.1388 165.489 19.9813 157.171 19.9813V21.9813C164.839 21.9813 171.763 25.8201 175.57 31.4421L177.226 30.3207ZM157.171 19.9813H141.941V21.9813H157.171V19.9813ZM141.917 19.9816C133.739 20.1791 126.188 24.1264 121.994 30.3207L123.65 31.4421C127.449 25.8325 134.372 22.1644 141.965 21.981L141.917 19.9816ZM122.01 30.2978C119.839 33.3191 118.568 37.0643 118.799 41.03L120.796 40.9138C120.595 37.4544 121.701 34.1553 123.634 31.465L122.01 30.2978ZM118.8 41.0473C118.995 43.6216 118.123 46.2615 116.474 48.8048L118.152 49.8929C119.96 47.1054 121.032 44.0338 120.795 40.8965L118.8 41.0473ZM116.487 48.7861C111.277 56.4378 99.6223 59.386 90.6386 55.0179L89.7641 56.8165C99.5751 61.587 112.332 58.4428 118.14 49.9117L116.487 48.7861ZM90.6565 55.0268C79.4335 49.2902 65.4734 52.7225 58.9082 62.5983L60.5738 63.7055C66.5384 54.7331 79.3661 51.5018 89.7462 56.8076L90.6565 55.0268ZM58.9004 62.6103L51.6634 73.8431L53.3446 74.9263L60.5817 63.6935L58.9004 62.6103ZM51.6668 73.8378C45.1583 83.8002 48.8635 96.5427 60.0446 102.216L60.9496 100.433C50.7437 95.254 47.536 83.8174 53.3412 74.9316L51.6668 73.8378ZM60.0297 102.208C68.7569 106.823 71.7182 116.94 66.6834 124.572L68.3528 125.673C74.1196 116.932 70.6 105.535 60.9646 100.44L60.0297 102.208ZM66.7044 124.541C64.9039 127.062 63.088 129.076 60.3099 130.3L61.1164 132.13C64.3871 130.689 66.4598 128.324 68.3318 125.704L66.7044 124.541ZM60.2713 130.318C56.459 132.195 53.0602 135.171 51.2164 138.218L52.9275 139.253C54.5401 136.588 57.6223 133.852 61.155 132.112L60.2713 130.318ZM51.2439 138.175C46.9988 144.443 47.2576 152.305 51.4479 158.792L53.128 157.707C49.3252 151.82 49.1519 144.831 52.8999 139.296L51.2439 138.175ZM51.4505 158.796L58.9035 170.219L60.5785 169.127L53.1255 157.703L51.4505 158.796ZM58.9049 170.222C63.103 176.621 70.8853 180.573 78.9677 180.573V178.573C71.496 178.573 64.3722 174.91 60.5772 169.125L58.9049 170.222ZM78.9677 180.573C82.788 180.573 87.2782 179.588 90.8998 177.593L89.9349 175.841C86.6435 177.654 82.4925 178.573 78.9677 178.573V180.573ZM90.9314 177.575C93.4162 176.086 96.4529 175.528 99.9227 175.528V173.528C96.2635 173.528 92.8193 174.112 89.9033 175.86L90.9314 177.575ZM99.9227 175.528C110.179 175.528 118.597 183.095 118.798 191.876L120.797 191.83C120.567 181.763 111.054 173.528 99.9227 173.528V175.528ZM118.798 191.853C118.798 203.482 129.322 212.368 142.265 212.368V210.368C130.148 210.368 120.798 202.118 120.798 191.853H118.798ZM142.265 212.368H156.955V210.368H142.265V212.368ZM156.955 212.368C169.793 212.368 180.314 203.479 180.314 191.853H178.314C178.314 202.121 168.96 210.368 156.955 210.368V212.368ZM180.313 191.887C180.616 183.095 189.044 175.528 199.297 175.528V173.528C188.162 173.528 178.66 181.763 178.315 191.819L180.313 191.887ZM199.297 175.528C202.65 175.528 205.699 176.083 208.303 177.584L209.301 175.851C206.289 174.115 202.856 173.528 199.297 173.528V175.528ZM208.32 177.593C211.94 179.587 216.321 180.573 220.252 180.573V178.573C216.621 178.573 212.578 177.655 209.285 175.841L208.32 177.593ZM220.252 180.573C228.229 180.573 236.01 176.619 240.207 170.222L238.534 169.125C234.738 174.912 227.613 178.573 220.252 178.573V180.573ZM240.204 170.225L247.765 158.802L246.098 157.698L238.537 169.121L240.204 170.225ZM247.785 158.77C251.84 152.12 252.23 144.457 247.976 138.175L246.32 139.296C250.059 144.818 249.8 151.624 246.078 157.729L247.785 158.77Z" fill="url(#paint2_linear_626_16)" mask="url(#path-5-outside-1_626_16)"/>
</g>
<g filter="url(#filter5_df_626_16)">
<path d="M149.745 142.372C132.786 142.372 119.068 130.473 119.068 115.528C119.068 100.582 132.786 88.5879 149.745 88.5879C166.703 88.5879 180.097 100.582 180.097 115.528C180.097 130.473 166.703 142.372 149.745 142.372Z" fill="url(#paint3_linear_626_16)" shape-rendering="crispEdges"/>
</g>
<defs>
<filter id="filter0_b_626_16" x="-13" y="75.8099" width="187.586" height="187.19" filterUnits="userSpaceOnUse" color-interpolation-filters="sRGB">
<feFlood flood-opacity="0" result="BackgroundImageFix"/>
<feGaussianBlur in="BackgroundImageFix" stdDeviation="6.5"/>
<feComposite in2="SourceAlpha" operator="in" result="effect1_backgroundBlur_626_16"/>
<feBlend mode="normal" in="SourceGraphic" in2="effect1_backgroundBlur_626_16" result="shape"/>
</filter>
<filter id="filter1_f_626_16" x="23.6841" y="112.376" width="115.318" height="114.965" filterUnits="userSpaceOnUse" color-interpolation-filters="sRGB">
<feFlood flood-opacity="0" result="BackgroundImageFix"/>
<feBlend mode="normal" in="SourceGraphic" in2="BackgroundImageFix" result="shape"/>
<feGaussianBlur stdDeviation="8" result="effect1_foregroundBlur_626_16"/>
</filter>
<filter id="filter2_b_626_16" x="-13" y="-13" width="191.66" height="184.526" filterUnits="userSpaceOnUse" color-interpolation-filters="sRGB">
<feFlood flood-opacity="0" result="BackgroundImageFix"/>
<feGaussianBlur in="BackgroundImageFix" stdDeviation="6.5"/>
<feComposite in2="SourceAlpha" operator="in" result="effect1_backgroundBlur_626_16"/>
<feBlend mode="normal" in="SourceGraphic" in2="effect1_backgroundBlur_626_16" result="shape"/>
</filter>
<filter id="filter3_f_626_16" x="24.6845" y="22.912" width="117.418" height="113.594" filterUnits="userSpaceOnUse" color-interpolation-filters="sRGB">
<feFlood flood-opacity="0" result="BackgroundImageFix"/>
<feBlend mode="normal" in="SourceGraphic" in2="BackgroundImageFix" result="shape"/>
<feGaussianBlur stdDeviation="8" result="effect1_foregroundBlur_626_16"/>
</filter>
<filter id="filter4_b_626_16" x="24.1803" y="-4.01868" width="250.82" height="240.386" filterUnits="userSpaceOnUse" color-interpolation-filters="sRGB">
<feFlood flood-opacity="0" result="BackgroundImageFix"/>
<feGaussianBlur in="BackgroundImageFix" stdDeviation="12"/>
<feComposite in2="SourceAlpha" operator="in" result="effect1_backgroundBlur_626_16"/>
<feBlend mode="normal" in="SourceGraphic" in2="effect1_backgroundBlur_626_16" result="shape"/>
</filter>
<filter id="filter5_df_626_16" x="115.068" y="84.5879" width="69.0286" height="65.7841" filterUnits="userSpaceOnUse" color-interpolation-filters="sRGB">
<feFlood flood-opacity="0" result="BackgroundImageFix"/>
<feColorMatrix in="SourceAlpha" type="matrix" values="0 0 0 0 0 0 0 0 0 0 0 0 0 0 0 0 0 0 127 0" result="hardAlpha"/>
<feOffset dy="4"/>
<feGaussianBlur stdDeviation="2"/>
<feComposite in2="hardAlpha" operator="out"/>
<feColorMatrix type="matrix" values="0 0 0 0 0 0 0 0 0 0 0 0 0 0 0 0 0 0 0.25 0"/>
<feBlend mode="normal" in2="BackgroundImageFix" result="effect1_dropShadow_626_16"/>
<feBlend mode="normal" in="SourceGraphic" in2="effect1_dropShadow_626_16" result="shape"/>
<feGaussianBlur stdDeviation="2" result="effect2_foregroundBlur_626_16"/>
</filter>
<linearGradient id="paint0_linear_626_16" x1="92.6891" y1="180.199" x2="-49.1616" y2="249.34" gradientUnits="userSpaceOnUse">
<stop stop-color="#D2DBD4"/>
<stop offset="1" stop-color="#367239"/>
</linearGradient>
<linearGradient id="paint1_linear_626_16" x1="95.0258" y1="89.8784" x2="-48.0206" y2="162.561" gradientUnits="userSpaceOnUse">
<stop stop-color="#B6C2A5"/>
<stop offset="1" stop-color="#367239"/>
</linearGradient>
<linearGradient id="paint2_linear_626_16" x1="81.1475" y1="43.1616" x2="201.074" y2="199.833" gradientUnits="userSpaceOnUse">
<stop stop-color="white" stop-opacity="0.25"/>
<stop offset="1" stop-color="white" stop-opacity="0"/>
</linearGradient>
<linearGradient id="paint3_linear_626_16" x1="175.77" y1="98.3002" x2="107.811" y2="100.814" gradientUnits="userSpaceOnUse">
<stop stop-color="white"/>
<stop offset="1" stop-color="white" stop-opacity="0.2"/>
</linearGradient>
</defs>
</svg>
